<?xml version="1.0" encoding="utf-8"?>
<!-- Generator: Adobe Illustrator 15.0.0, SVG Export Plug-In . SVG Version: 6.00 Build 0)  -->
<!DOCTYPE svg PUBLIC "-//W3C//DTD SVG 1.1//EN" "http://www.w3.org/Graphics/SVG/1.1/DTD/svg11.dtd">
<svg version="1.1" id="Layer_1" xmlns="http://www.w3.org/2000/svg" xmlns:xlink="http://www.w3.org/1999/xlink" x="0px" y="0px"
	 width="1040px" height="1040px" viewBox="0 0 1040 1040" enable-background="new 0 0 1040 1040" xml:space="preserve">
<circle fill="#808080" cx="520" cy="520.001" r="516.153"/>
<path fill="#FFFFFF" d="M858.352,688.988c39.078-38.514,62.529-86.83,62.529-139.553c0-113.687-108.715-207.62-250.395-224.39
	c-44.766-81.854-149.926-139.408-272.568-139.408c-163.282,0-295.587,101.749-295.587,227.375
	c0,52.581,23.449,100.896,62.529,139.55c-21.744,43.629-53.007,77.451-53.574,78.02c-8.955,9.52-11.511,23.445-6.252,35.525
	c5.112,12.08,17.049,19.896,30.126,19.896c76.027,0,137.418-28.709,177.921-55.141c13.071,2.984,26.571,5.26,40.356,6.963
	c44.625,81.572,149.357,138.984,271.855,138.984c29.559,0,57.979-3.412,84.98-9.666c40.5,26.291,101.752,55.139,177.92,55.139
	c13.074,0,24.867-7.816,30.129-19.895c5.115-12.08,2.699-26.006-6.256-35.527C911.5,766.438,880.094,732.615,858.352,688.988z
	 M300.147,557.822l-24.302,15.773c-20.037,12.932-40.499,23.162-61.249,30.41c3.838-6.678,7.676-13.783,11.371-21.031l22.026-44.195
	l-35.245-34.818c-19.186-19.042-42.204-50.166-42.204-90.948c0-86.259,104.165-159.163,227.373-159.163
	c123.209,0,227.374,72.903,227.374,159.163c0,86.26-104.164,159.161-227.374,159.161c-23.447,0-46.896-2.701-69.634-7.957
	L300.147,557.822L300.147,557.822z M810.461,640.385l-35.102,34.678l22.027,44.195c3.695,7.246,7.533,14.352,11.367,21.029
	c-20.746-7.248-41.211-17.479-61.248-30.41l-24.301-15.773l-28.277,6.535c-22.736,5.262-46.186,7.961-69.635,7.961
	c-76.74,0-145.236-28.566-186.588-70.629c143.956-15.35,254.803-109.992,254.803-224.958c0-4.832-0.566-9.521-0.996-14.211
	c91.518,20.604,160.154,80.718,160.154,150.634C852.668,590.223,829.646,621.344,810.461,640.385z"/>
</svg>
