<?xml version="1.0" encoding="utf-8"?>
<!-- Generator: Adobe Illustrator 21.0.2, SVG Export Plug-In . SVG Version: 6.00 Build 0)  -->
<svg version="1.1" id="Layer_1" xmlns="http://www.w3.org/2000/svg" xmlns:xlink="http://www.w3.org/1999/xlink" x="0px" y="0px"
	 viewBox="0 0 1040 1040" style="enable-background:new 0 0 1040 1040;" xml:space="preserve">
<style type="text/css">
	.st0{clip-path:url(#SVGID_2_);fill:#808080;}
	.st1{clip-path:url(#SVGID_2_);fill:#FFFFFF;}
</style>
<g>
	<defs>
		<circle id="SVGID_1_" cx="518.7" cy="521" r="520"/>
	</defs>
	<clipPath id="SVGID_2_">
		<use xlink:href="#SVGID_1_"  style="overflow:visible;"/>
	</clipPath>
	<circle class="st0" cx="518.7" cy="521" r="506"/>
	<path class="st1" d="M798.5,164.9H238.8c-42.1,0-76.3,34.2-76.3,76.3v559.7c0,42.1,34.2,76.3,76.3,76.3h559.7
		c42.1,0,76.3-34.2,76.3-76.3V241.2C874.8,199,840.6,164.9,798.5,164.9z M312,775.4c-11.2,0-20.8-7.7-23.2-18.5l-23.8-103.3
		c-2.6-11.2,3.2-22.7,13.8-27.3L390,578.6c9.8-4.2,21.1-1.4,27.9,6.8l49.3,60.2c77.8-36.5,140.4-99.9,176.1-176.1l-60.2-49.3
		c-8.2-6.7-11-18.1-6.8-27.9l47.7-111.3c4.5-10.6,16-16.4,27.3-13.8l103.3,23.8c10.8,2.5,18.5,12.1,18.5,23.2
		C773.1,569.2,566.5,775.4,312,775.4z"/>
</g>
</svg>
