<?xml version="1.0" encoding="utf-8"?>
<!-- Generator: Adobe Illustrator 15.0.0, SVG Export Plug-In . SVG Version: 6.00 Build 0)  -->
<!DOCTYPE svg PUBLIC "-//W3C//DTD SVG 1.1//EN" "http://www.w3.org/Graphics/SVG/1.1/DTD/svg11.dtd">
<svg version="1.1" id="Layer_1" focusable="false" xmlns="http://www.w3.org/2000/svg" xmlns:xlink="http://www.w3.org/1999/xlink"
	 x="0px" y="0px" width="1040px" height="1040px" viewBox="2291.543 0 1040 1040" enable-background="new 2291.543 0 1040 1040"
	 xml:space="preserve">
<circle fill="#808080" cx="520.718" cy="520.718" r="520.718"/>
<path fill="#FFFFFF" d="M520,487.403c104.909,0,189.931-85.023,189.931-189.933c0-104.908-85.021-189.932-189.931-189.932
	c-104.909,0-189.933,85.023-189.933,189.932C330.067,402.38,415.091,487.403,520,487.403z M652.952,534.887h-24.781
	c-32.938,15.135-69.59,23.741-108.171,23.741c-38.58,0-75.082-8.606-108.173-23.741h-24.779
	c-110.101,0-199.429,89.327-199.429,199.43v61.728c0,39.322,31.902,71.225,71.224,71.225h522.313
	c39.323,0,71.226-31.902,71.226-71.225v-61.728C852.381,624.214,763.054,534.887,652.952,534.887z"/>
<circle fill="#808080" cx="1666.489" cy="520.718" r="520.718"/>
<circle fill="#808080" cx="2812.261" cy="520.718" r="520.718"/>
<circle fill="#808080" cx="3928.038" cy="520.718" r="520.718"/>
<path fill="#FFFFFF" d="M2018.563,251.816l-336.915-129.474c-10.411-3.909-21.889-3.909-32.3,0l-336.929,129.474
	c-8.976,3.368-14.921,11.948-14.922,21.533v53.057c0,12.708,10.292,23,22.999,23h689.986c12.708,0,23-10.292,23-23V273.35
	C2033.482,263.762,2027.532,255.18,2018.563,251.816z M1389.496,395.405V625.4h-23.001c-12.707,0-22.999,10.293-22.999,23v68.998
	h643.987V648.4c0-12.707-10.292-23-22.999-23h-23V395.405h-91.998V625.4h-137.997V395.405h-91.999V625.4h-137.997V395.405H1389.496z
	 M2010.482,763.397h-689.986c-12.707,0-22.999,10.293-22.999,23.001v45.998c0,12.708,10.292,23,22.999,23h689.986
	c12.708,0,23-10.292,23-23v-45.998C2033.482,773.69,2023.19,763.397,2010.482,763.397z"/>
<path fill="#FFFFFF" d="M2802.6,320.246l-305.637,251.727V843.66c0,14.648,11.875,26.523,26.523,26.523l185.766-0.48
	c14.598-0.073,26.393-11.927,26.391-26.523V684.518c0-14.649,11.876-26.524,26.525-26.524h106.094
	c14.649,0,26.525,11.875,26.525,26.524v158.546c-0.046,14.648,11.792,26.561,26.439,26.606c0.028,0,0.057,0,0.084,0l185.699,0.514
	c14.648,0,26.524-11.875,26.524-26.523V571.791l-305.571-251.545C2820.562,314.28,2810.001,314.28,2802.6,320.246L2802.6,320.246z
	 M3285.382,491.342l-138.586-114.235V147.494c0-10.986-8.907-19.893-19.894-19.893h-92.833c-10.987,0-19.894,8.906-19.894,19.893
	v120.368L2865.76,145.753c-29.374-24.171-71.748-24.171-101.123,0l-419.622,345.589c-8.468,6.999-9.659,19.538-2.659,28.006
	c0.002,0.002,0.004,0.005,0.008,0.009l42.271,51.389c6.979,8.486,19.515,9.708,28.001,2.73c0.01-0.01,0.021-0.019,0.031-0.027
	l389.933-321.17c7.401-5.966,17.962-5.966,25.363,0l389.949,321.17c8.465,7.004,21.005,5.82,28.008-2.644
	c0.003-0.002,0.006-0.006,0.009-0.009l42.272-51.39c6.975-8.488,5.75-21.023-2.738-28
	C3285.437,491.386,3285.409,491.363,3285.382,491.342L3285.382,491.342z"/>
<path fill="#FFFFFF" d="M4267.832,691.199c39.425-38.853,63.082-87.597,63.082-140.786c0-114.691-109.676-209.456-252.608-226.373
	c-45.161-82.579-151.252-140.642-274.978-140.642c-164.727,0-298.201,102.65-298.201,229.385
	c0,53.046,23.656,101.789,63.082,140.784c-21.936,44.015-53.476,78.136-54.048,78.709c-9.034,9.604-11.612,23.655-6.308,35.841
	c5.159,12.187,17.201,20.072,30.393,20.072c76.7,0,138.634-28.961,179.494-55.626c13.188,3.009,26.807,5.304,40.715,7.024
	c45.019,82.293,150.678,140.212,274.258,140.212c29.82,0,58.493-3.442,85.732-9.75c40.859,26.522,102.652,55.626,179.495,55.626
	c13.188,0,25.087-7.886,30.393-20.071c5.162-12.187,2.724-26.235-6.31-35.841C4321.451,769.334,4289.767,735.212,4267.832,691.199z
	 M3704.691,558.874l-24.515,15.913c-20.214,13.045-40.858,23.367-61.79,30.68c3.872-6.738,7.742-13.906,11.471-21.219l22.221-44.586
	l-35.557-35.125c-19.354-19.211-42.577-50.609-42.577-91.754c0-87.022,105.086-160.569,229.384-160.569
	c124.299,0,229.385,73.547,229.385,160.569c0,87.023-105.086,160.569-229.385,160.569c-23.655,0-47.311-2.725-70.25-8.028
	L3704.691,558.874L3704.691,558.874z M4219.518,642.167l-35.41,34.983l22.222,44.586c3.728,7.313,7.6,14.48,11.468,21.217
	c-20.93-7.311-41.575-17.633-61.789-30.68l-24.517-15.913l-28.528,6.594c-22.939,5.307-46.594,8.031-70.25,8.031
	c-77.418,0-146.52-28.819-188.238-71.255c145.229-15.484,257.055-110.964,257.055-226.947c0-4.875-0.572-9.604-1.004-14.337
	c92.326,20.788,161.572,81.432,161.572,151.967C4262.098,591.561,4238.873,622.957,4219.518,642.167z"/>
</svg>
