<?xml version="1.0" encoding="utf-8"?>
<!-- Generator: Adobe Illustrator 15.0.0, SVG Export Plug-In . SVG Version: 6.00 Build 0)  -->
<!DOCTYPE svg PUBLIC "-//W3C//DTD SVG 1.1//EN" "http://www.w3.org/Graphics/SVG/1.1/DTD/svg11.dtd">
<svg version="1.1" id="Layer_1" focusable="false" xmlns="http://www.w3.org/2000/svg" xmlns:xlink="http://www.w3.org/1999/xlink"
	 x="0px" y="0px" width="1040px" height="1040px" viewBox="0 0 1040 1040" enable-background="new 0 0 1040 1040"
	 xml:space="preserve">
<circle fill="#808080" cx="523.847" cy="523.847" r="516.153"/>
<path fill="#FFFFFF" d="M523.135,490.824c103.99,0,188.268-84.278,188.268-188.268c0-103.989-84.275-188.267-188.268-188.267
	c-103.988,0-188.267,84.277-188.267,188.267C334.868,406.546,419.146,490.824,523.135,490.824z M654.922,537.892h-24.563
	c-32.649,15.003-68.98,23.533-107.225,23.533c-38.24,0-74.423-8.53-107.224-23.533h-24.563
	c-109.136,0-197.681,88.544-197.681,197.684v61.187c0,38.979,31.623,70.602,70.599,70.602h517.735
	c38.979,0,70.602-31.622,70.602-70.602v-61.187C852.604,626.436,764.059,537.892,654.922,537.892z"/>
</svg>
